<?xml version="1.0" standalone="no"?>
<!DOCTYPE svg PUBLIC "-//W3C//DTD SVG 20010904//EN"
 "http://www.w3.org/TR/2001/REC-SVG-20010904/DTD/svg10.dtd">
<svg version="1.0" xmlns="http://www.w3.org/2000/svg"
 width="256.000000pt" height="256.000000pt" viewBox="0 0 256.000000 256.000000"
 preserveAspectRatio="xMidYMid meet">
<metadata>
Created by potrace 1.16, written by Peter Selinger 2001-2019
</metadata>
<g transform="translate(0.000000,256.000000) scale(0.100000,-0.100000)"
fill="#0080FF" stroke="NONE">
<path d="M1065 2445 c-488 -91 -875 -488 -956 -980 -15 -97 -13 -304 5 -401
45 -246 179 -493 358 -659 130 -120 344 -244 439 -253 76 -7 89 29 73 198 l-6
65 -107 0 c-96 0 -111 3 -164 28 -65 32 -91 63 -142 164 -20 40 -50 83 -68 98
-18 14 -45 36 -61 49 -41 32 -30 56 24 56 73 0 128 -39 201 -143 50 -72 107
-102 194 -102 99 0 130 15 145 72 7 24 23 60 36 78 l23 34 -47 7 c-78 11 -204
54 -264 90 -103 63 -175 166 -209 304 -8 32 -14 105 -14 175 1 135 17 192 82
286 33 49 34 53 24 95 -6 23 -11 64 -11 91 0 57 23 160 39 176 25 25 213 -39
299 -101 23 -18 28 -18 86 -3 80 20 361 21 467 2 l75 -13 51 31 c71 44 160 79
221 87 l51 6 17 -58 c20 -65 23 -193 6 -234 -9 -22 -4 -34 34 -91 54 -81 74
-156 74 -277 0 -288 -131 -475 -380 -541 -41 -10 -92 -22 -112 -26 -21 -3 -38
-10 -38 -15 0 -6 4 -10 9 -10 5 0 19 -24 32 -52 23 -50 24 -66 27 -278 2 -138
7 -230 14 -237 23 -28 90 -14 203 41 137 67 229 131 329 232 172 172 290 397
331 633 19 108 19 305 0 413 -85 491 -490 888 -985 967 -88 14 -319 12 -405
-4z"/>
</g>
</svg>
